# WaveFront *.obj file (generated by Autodesk ATF)

mtllib f8633e16-47ea-45a4-a0ef-36bd4f44e5d4.mtl

g segment1

v 0.500000 1.500000 0.500000
v 0.500000 1.500000 -0.000000
v 0.490393 1.597545 -0.000000
v 0.461940 1.691342 -0.000000
v 0.415735 1.777785 -0.000000
v 0.353553 1.853553 -0.000000
v 0.277785 1.915735 -0.000000
v 0.191342 1.961940 -0.000000
v 0.097545 1.990393 -0.000000
v 0.000000 2.000000 -0.000000
v -0.097545 1.990393 -0.000000
v -0.191342 1.961940 -0.000000
v -0.277785 1.915735 -0.000000
v -0.353553 1.853553 -0.000000
v -0.415735 1.777785 -0.000000
v -0.461940 1.691342 -0.000000
v -0.490393 1.597545 -0.000000
v -0.500000 1.500000 -0.000000
v -0.500000 1.500000 0.500000
v -0.490393 1.597545 0.500000
v -0.461940 1.691342 0.500000
v -0.415735 1.777785 0.500000
v -0.353553 1.853553 0.500000
v -0.277785 1.915735 0.500000
v -0.191342 1.961940 0.500000
v -0.097545 1.990393 0.500000
v 0.000000 2.000000 0.500000
v 0.097545 1.990393 0.500000
v 0.191342 1.961940 0.500000
v 0.277785 1.915735 0.500000
v 0.353553 1.853553 0.500000
v 0.415735 1.777785 0.500000
v 0.461940 1.691342 0.500000
v 0.490393 1.597545 0.500000
v 0.500000 1.000000 -0.000000
v -0.500000 1.000000 -0.000000
v -0.500000 0.500000 0.500000
v 0.000000 0.500000 0.500000
v 0.500000 0.500000 0.500000
v 0.490393 1.000000 -0.097545
v 0.461940 1.000000 -0.191342
v 0.415735 1.000000 -0.277785
v 0.353553 1.000000 -0.353553
v 0.277785 1.000000 -0.415735
v 0.191342 1.000000 -0.461940
v 0.097545 1.000000 -0.490393
v 0.000000 1.000000 -0.500000
v -0.097545 1.000000 -0.490393
v -0.191342 1.000000 -0.461940
v -0.277785 1.000000 -0.415735
v -0.353553 1.000000 -0.353553
v -0.415735 1.000000 -0.277785
v -0.461940 1.000000 -0.191342
v -0.490393 1.000000 -0.097545
v -0.500000 0.500000 -0.000000
v -0.490393 0.500000 0.097545
v -0.461940 0.500000 0.191342
v -0.415735 0.500000 0.277785
v -0.353553 0.500000 0.353553
v -0.277785 0.500000 0.415735
v -0.191342 0.500000 0.461940
v -0.097545 0.500000 0.490393
v 0.097545 0.500000 0.490393
v 0.191342 0.500000 0.461940
v 0.277785 0.500000 0.415735
v 0.353553 0.500000 0.353553
v 0.415735 0.500000 0.277785
v 0.461940 0.500000 0.191342
v 0.490393 0.500000 0.097545
v 0.500000 0.500000 -0.000000
v 0.500000 0.000000 -0.000000
v 0.490393 -0.000000 -0.097545
v 0.461940 -0.000000 -0.191342
v 0.415735 -0.000000 -0.277785
v 0.353553 -0.000000 -0.353553
v 0.277785 -0.000000 -0.415735
v 0.191342 -0.000000 -0.461940
v 0.097545 -0.000000 -0.490393
v -0.000000 -0.000000 -0.500000
v -0.097545 -0.000000 -0.490393
v -0.191342 -0.000000 -0.461940
v -0.277785 -0.000000 -0.415735
v -0.353553 -0.000000 -0.353553
v -0.415735 -0.000000 -0.277785
v -0.461940 -0.000000 -0.191342
v -0.490393 -0.000000 -0.097545
v -0.500000 0.000000 -0.000000
v -0.490393 0.000000 0.097545
v -0.461940 0.000000 0.191342
v -0.415735 0.000000 0.277785
v -0.353553 0.000000 0.353553
v -0.277785 0.000000 0.415735
v -0.191342 0.000000 0.461940
v -0.097545 0.000000 0.490393
v 0.000000 0.000000 0.500000
v 0.097545 0.000000 0.490393
v 0.191342 0.000000 0.461940
v 0.277785 0.000000 0.415735
v 0.353553 0.000000 0.353553
v 0.415735 0.000000 0.277785
v 0.461940 0.000000 0.191342
v 0.490393 0.000000 0.097545
vt -0.050000 -0.000000 0.000000
vt -0.000000 -0.000000 0.000000
vt -0.050000 0.009817 0.000000
vt 0.000000 0.009817 0.000000
vt -0.050000 0.019635 0.000000
vt -0.000000 0.019635 0.000000
vt -0.050000 0.029452 0.000000
vt -0.000000 0.029452 0.000000
vt -0.050000 0.039270 0.000000
vt 0.000000 0.039270 0.000000
vt -0.050000 0.049087 0.000000
vt -0.000000 0.049087 0.000000
vt -0.050000 0.058905 0.000000
vt 0.000000 0.058905 0.000000
vt -0.050000 0.068722 0.000000
vt -0.000000 0.068722 0.000000
vt -0.050000 0.078540 0.000000
vt -0.000000 0.078540 0.000000
vt -0.050000 0.088357 0.000000
vt -0.000000 0.088357 0.000000
vt -0.050000 0.098175 0.000000
vt 0.000000 0.098175 0.000000
vt -0.050000 0.107992 0.000000
vt 0.000000 0.107992 0.000000
vt -0.050000 0.117810 0.000000
vt 0.000000 0.117810 0.000000
vt -0.050000 0.127627 0.000000
vt -0.000000 0.127627 0.000000
vt -0.050000 0.137445 0.000000
vt 0.000000 0.137445 0.000000
vt -0.050000 0.147262 0.000000
vt 0.000000 0.147262 0.000000
vt -0.050000 0.157080 0.000000
vt -0.000000 0.157080 0.000000
vt -0.034755 -0.049039 0.000000
vt -0.025000 -0.050000 0.000000
vt -0.025000 0.050000 0.000000
vt 0.025000 -0.050000 0.000000
vt 0.025000 0.050000 0.000000
vt -0.034755 0.049039 0.000000
vt -0.044134 -0.046194 0.000000
vt -0.044134 0.046194 0.000000
vt -0.052779 -0.041573 0.000000
vt -0.052779 0.041573 0.000000
vt -0.060355 -0.035355 0.000000
vt -0.060355 0.035355 0.000000
vt -0.066573 0.027779 0.000000
vt -0.066573 -0.027779 0.000000
vt -0.071194 0.019134 0.000000
vt -0.071194 -0.019134 0.000000
vt -0.074039 -0.009755 0.000000
vt -0.074039 0.009755 0.000000
vt -0.075000 -0.000000 0.000000
vt -0.075000 -0.050000 0.000000
vt 0.025000 -0.050000 0.000000
vt -0.084755 -0.049039 0.000000
vt -0.094134 -0.046194 0.000000
vt -0.102779 -0.041573 0.000000
vt 0.025000 -0.000000 0.000000
vt -0.075000 0.050000 0.000000
vt 0.025000 0.050000 0.000000
vt -0.084755 0.049039 0.000000
vt -0.094134 0.046194 0.000000
vt -0.102779 0.041573 0.000000
vt -0.110355 -0.035355 0.000000
vt -0.110355 0.035355 0.000000
vt -0.116573 -0.027779 0.000000
vt -0.116573 0.027779 0.000000
vt -0.121194 -0.019134 0.000000
vt -0.121194 0.019134 0.000000
vt -0.124039 0.009755 0.000000
vt -0.125000 0.000000 0.000000
vt -0.124039 -0.009755 0.000000
vt -0.050000 -0.000000 0.000000
vt 0.050000 0.000000 0.000000
vt -0.049039 0.009755 0.000000
vt 0.049039 0.009755 0.000000
vt -0.046194 0.019134 0.000000
vt 0.046194 0.019134 0.000000
vt -0.041573 0.027779 0.000000
vt 0.041573 0.027779 0.000000
vt -0.035355 0.035355 0.000000
vt 0.035355 0.035355 0.000000
vt -0.027779 0.041573 0.000000
vt 0.027779 0.041573 0.000000
vt -0.019134 0.046194 0.000000
vt 0.019134 0.046194 0.000000
vt -0.009755 0.049039 0.000000
vt 0.009755 0.049039 0.000000
vt 0.000000 0.050000 0.000000
vt 0.025000 -0.050000 0.000000
vt 0.015245 -0.049039 0.000000
vt -0.025000 -0.050000 0.000000
vt 0.005866 -0.046194 0.000000
vt -0.002779 -0.041573 0.000000
vt -0.010355 -0.035355 0.000000
vt -0.016573 -0.027779 0.000000
vt -0.021194 -0.019134 0.000000
vt -0.024039 -0.009755 0.000000
vt -0.025000 -0.000000 0.000000
vt -0.024039 0.009755 0.000000
vt -0.025000 0.050000 0.000000
vt -0.021194 0.019134 0.000000
vt -0.016573 0.027779 0.000000
vt -0.010355 0.035355 0.000000
vt -0.002779 0.041573 0.000000
vt 0.005866 0.046194 0.000000
vt 0.015245 0.049039 0.000000
vt 0.025000 0.050000 0.000000
vt -0.025000 0.025000 0.000000
vt -0.025000 -0.025000 0.000000
vt 0.025000 0.025000 0.000000
vt 0.075000 -0.025000 0.000000
vt 0.075000 0.025000 0.000000
vt 0.025000 0.025000 0.000000
vt -0.025000 0.025000 0.000000
vt 0.025000 -0.025000 0.000000
vt -0.075000 -0.025000 0.000000
vt -0.075000 0.025000 0.000000
vt 0.050000 -0.009817 0.000000
vt 0.050000 -0.000000 0.000000
vt 0.000000 -0.000000 0.000000
vt 0.050000 0.009817 0.000000
vt -0.050000 0.009817 0.000000
vt -0.050000 0.019635 0.000000
vt 0.050000 0.019635 0.000000
vt -0.050000 0.029452 0.000000
vt 0.050000 0.029452 0.000000
vt -0.050000 0.039270 0.000000
vt 0.050000 0.039270 0.000000
vt -0.050000 0.049087 0.000000
vt 0.050000 0.049087 0.000000
vt -0.050000 0.058905 0.000000
vt 0.050000 0.058905 0.000000
vt -0.050000 0.068722 0.000000
vt 0.050000 0.068722 0.000000
vt -0.050000 0.078540 0.000000
vt 0.050000 0.078540 0.000000
vt -0.050000 0.088357 0.000000
vt 0.050000 0.088357 0.000000
vt -0.050000 0.098175 0.000000
vt 0.050000 0.098175 0.000000
vt -0.050000 0.107992 0.000000
vt 0.050000 0.107992 0.000000
vt -0.050000 0.117810 0.000000
vt 0.050000 0.117810 0.000000
vt -0.050000 0.127627 0.000000
vt 0.050000 0.127627 0.000000
vt -0.050000 0.137445 0.000000
vt 0.050000 0.137445 0.000000
vt -0.050000 0.147262 0.000000
vt 0.050000 0.147262 0.000000
vt 0.000000 0.157080 0.000000
vt 0.050000 0.157080 0.000000
vt 0.000000 -0.157080 0.000000
vt 0.050000 -0.157080 0.000000
vt 0.000000 -0.147262 0.000000
vt 0.050000 -0.147262 0.000000
vt 0.000000 -0.137445 0.000000
vt 0.050000 -0.137445 0.000000
vt 0.000000 -0.127627 0.000000
vt 0.050000 -0.127627 0.000000
vt 0.000000 -0.117810 0.000000
vt 0.050000 -0.117810 0.000000
vt 0.000000 -0.107992 0.000000
vt 0.050000 -0.107992 0.000000
vt 0.000000 -0.098175 0.000000
vt 0.050000 -0.098175 0.000000
vt 0.000000 -0.088357 0.000000
vt 0.050000 -0.088357 0.000000
vt 0.000000 -0.078540 0.000000
vt 0.050000 -0.078540 0.000000
vt 0.000000 -0.068722 0.000000
vt 0.050000 -0.068722 0.000000
vt 0.000000 -0.058905 0.000000
vt 0.050000 -0.058905 0.000000
vt 0.000000 -0.049087 0.000000
vt 0.050000 -0.049087 0.000000
vt 0.000000 -0.039270 0.000000
vt 0.050000 -0.039270 0.000000
vt 0.000000 -0.029452 0.000000
vt 0.050000 -0.029452 0.000000
vt 0.000000 -0.019635 0.000000
vt 0.050000 -0.019635 0.000000
vt 0.000000 -0.009817 0.000000
vt -0.050000 0.000000 0.000000
vt -0.050000 0.157080 0.000000
vt -0.049039 -0.009755 0.000000
vt 0.049039 -0.009755 0.000000
vt -0.050000 -0.000000 0.000000
vt 0.050000 -0.000000 0.000000
vt -0.049039 0.009755 0.000000
vt 0.049039 0.009755 0.000000
vt -0.046194 0.019134 0.000000
vt 0.046194 0.019134 0.000000
vt -0.041573 0.027779 0.000000
vt 0.041573 0.027779 0.000000
vt -0.035355 0.035355 0.000000
vt 0.035355 0.035355 0.000000
vt -0.027779 0.041573 0.000000
vt 0.027779 0.041573 0.000000
vt -0.019134 0.046194 0.000000
vt 0.019134 0.046194 0.000000
vt -0.009755 0.049039 0.000000
vt 0.009755 0.049039 0.000000
vt 0.000000 0.050000 0.000000
vt 0.046194 -0.019134 0.000000
vt -0.046194 -0.019134 0.000000
vt 0.041573 -0.027779 0.000000
vt -0.041573 -0.027779 0.000000
vt 0.035355 -0.035355 0.000000
vt -0.035355 -0.035355 0.000000
vt 0.027779 -0.041573 0.000000
vt -0.027779 -0.041573 0.000000
vt 0.019134 -0.046194 0.000000
vt -0.019134 -0.046194 0.000000
vt 0.009755 -0.049039 0.000000
vt -0.009755 -0.049039 0.000000
vt -0.000000 -0.050000 0.000000
vn 0.100000 -0.000000 0.000000
vn 0.100000 -0.000000 0.000000
vn 0.098079 0.019509 -0.000000
vn 0.098079 0.019509 -0.000000
vn 0.092388 0.038268 -0.000000
vn 0.092388 0.038268 -0.000000
vn 0.083147 0.055557 -0.000000
vn 0.083147 0.055557 -0.000000
vn 0.070711 0.070711 -0.000000
vn 0.070711 0.070711 -0.000000
vn 0.055557 0.083147 -0.000000
vn 0.055557 0.083147 -0.000000
vn 0.038268 0.092388 -0.000000
vn 0.038268 0.092388 -0.000000
vn 0.019509 0.098079 -0.000000
vn 0.019509 0.098079 -0.000000
vn 0.000000 0.100000 -0.000000
vn 0.000000 0.100000 -0.000000
vn -0.019509 0.098079 -0.000000
vn -0.019509 0.098079 -0.000000
vn -0.038268 0.092388 -0.000000
vn -0.038268 0.092388 -0.000000
vn -0.055557 0.083147 -0.000000
vn -0.055557 0.083147 -0.000000
vn -0.070711 0.070711 -0.000000
vn -0.070711 0.070711 -0.000000
vn -0.083147 0.055557 -0.000000
vn -0.083147 0.055557 -0.000000
vn -0.092388 0.038268 -0.000000
vn -0.092388 0.038268 -0.000000
vn -0.098079 0.019509 -0.000000
vn -0.098079 0.019509 -0.000000
vn -0.100000 0.000000 -0.000000
vn -0.100000 0.000000 -0.000000
vn 0.000000 -0.000000 -0.100000
vn 0.000000 -0.000000 -0.100000
vn 0.000000 -0.000000 -0.100000
vn 0.000000 -0.000000 -0.100000
vn 0.000000 -0.000000 -0.100000
vn 0.000000 -0.000000 -0.100000
vn 0.000000 -0.000000 -0.100000
vn 0.000000 -0.000000 -0.100000
vn 0.000000 -0.000000 -0.100000
vn 0.000000 -0.000000 -0.100000
vn 0.000000 -0.000000 -0.100000
vn 0.000000 -0.000000 -0.100000
vn 0.000000 -0.000000 -0.100000
vn 0.000000 -0.000000 -0.100000
vn 0.000000 -0.000000 -0.100000
vn 0.000000 -0.000000 -0.100000
vn 0.000000 -0.000000 -0.100000
vn 0.000000 -0.000000 -0.100000
vn 0.000000 -0.000000 -0.100000
vn 0.000000 0.000000 0.100000
vn 0.000000 0.000000 0.100000
vn 0.000000 0.000000 0.100000
vn 0.000000 0.000000 0.100000
vn 0.000000 0.000000 0.100000
vn 0.000000 0.000000 0.100000
vn 0.000000 0.000000 0.100000
vn 0.000000 0.000000 0.100000
vn 0.000000 0.000000 0.100000
vn 0.000000 0.000000 0.100000
vn 0.000000 0.000000 0.100000
vn 0.000000 0.000000 0.100000
vn 0.000000 0.000000 0.100000
vn 0.000000 0.000000 0.100000
vn 0.000000 0.000000 0.100000
vn 0.000000 0.000000 0.100000
vn 0.000000 0.000000 0.100000
vn 0.000000 0.000000 0.100000
vn 0.000000 0.000000 0.100000
vn 0.000000 0.000000 0.100000
vn 0.000000 0.100000 -0.000000
vn 0.000000 0.100000 -0.000000
vn 0.000000 0.100000 -0.000000
vn 0.000000 0.100000 -0.000000
vn 0.000000 0.100000 -0.000000
vn 0.000000 0.100000 -0.000000
vn 0.000000 0.100000 -0.000000
vn 0.000000 0.100000 -0.000000
vn 0.000000 0.100000 -0.000000
vn 0.000000 0.100000 -0.000000
vn 0.000000 0.100000 -0.000000
vn 0.000000 0.100000 -0.000000
vn 0.000000 0.100000 -0.000000
vn 0.000000 0.100000 -0.000000
vn 0.000000 0.100000 -0.000000
vn 0.000000 0.100000 -0.000000
vn 0.000000 0.100000 -0.000000
vn 0.000000 -0.100000 0.000000
vn 0.000000 -0.100000 0.000000
vn 0.000000 -0.100000 0.000000
vn 0.000000 -0.100000 0.000000
vn 0.000000 -0.100000 0.000000
vn 0.000000 -0.100000 0.000000
vn 0.000000 -0.100000 0.000000
vn 0.000000 -0.100000 0.000000
vn 0.000000 -0.100000 0.000000
vn 0.000000 -0.100000 0.000000
vn 0.000000 -0.100000 0.000000
vn 0.000000 -0.100000 0.000000
vn 0.000000 -0.100000 0.000000
vn 0.000000 -0.100000 0.000000
vn 0.000000 -0.100000 0.000000
vn 0.000000 -0.100000 0.000000
vn 0.000000 -0.100000 0.000000
vn 0.000000 -0.100000 0.000000
vn 0.000000 -0.100000 0.000000
vn -0.100000 0.000000 0.000000
vn -0.100000 0.000000 0.000000
vn -0.100000 0.000000 0.000000
vn 0.100000 0.000000 0.000000
vn 0.100000 0.000000 0.000000
vn 0.100000 0.000000 0.000000
vn 0.100000 0.000000 0.000000
vn 0.100000 0.000000 0.000000
vn 0.098079 0.000000 0.019509
vn 0.100000 0.000000 0.000000
vn 0.098079 -0.000000 -0.019509
vn 0.098079 -0.000000 -0.019509
vn 0.092388 -0.000000 -0.038268
vn 0.092388 -0.000000 -0.038268
vn 0.083147 -0.000000 -0.055557
vn 0.083147 -0.000000 -0.055557
vn 0.070711 -0.000000 -0.070711
vn 0.070711 -0.000000 -0.070711
vn 0.055557 -0.000000 -0.083147
vn 0.055557 -0.000000 -0.083147
vn 0.038268 -0.000000 -0.092388
vn 0.038268 -0.000000 -0.092388
vn 0.019509 -0.000000 -0.098079
vn 0.019509 -0.000000 -0.098079
vn 0.000000 -0.000000 -0.100000
vn -0.000000 -0.000000 -0.100000
vn -0.019509 -0.000000 -0.098079
vn -0.019509 -0.000000 -0.098079
vn -0.038268 -0.000000 -0.092388
vn -0.038268 -0.000000 -0.092388
vn -0.055557 -0.000000 -0.083147
vn -0.055557 -0.000000 -0.083147
vn -0.070711 -0.000000 -0.070711
vn -0.070711 -0.000000 -0.070711
vn -0.083147 -0.000000 -0.055557
vn -0.083147 -0.000000 -0.055557
vn -0.092388 -0.000000 -0.038268
vn -0.092388 -0.000000 -0.038268
vn -0.098079 -0.000000 -0.019509
vn -0.098079 -0.000000 -0.019509
vn -0.100000 -0.000000 -0.000000
vn -0.098079 0.000000 0.019509
vn -0.098079 0.000000 0.019509
vn -0.092388 0.000000 0.038268
vn -0.092388 0.000000 0.038268
vn -0.083147 0.000000 0.055557
vn -0.083147 0.000000 0.055557
vn -0.070711 0.000000 0.070711
vn -0.070711 0.000000 0.070711
vn -0.055557 0.000000 0.083147
vn -0.055557 0.000000 0.083147
vn -0.038268 0.000000 0.092388
vn -0.038268 0.000000 0.092388
vn -0.019509 0.000000 0.098079
vn -0.019509 0.000000 0.098079
vn 0.000000 0.000000 0.100000
vn 0.019509 0.000000 0.098079
vn 0.019509 0.000000 0.098079
vn 0.038268 0.000000 0.092388
vn 0.038268 0.000000 0.092388
vn 0.055557 0.000000 0.083147
vn 0.055557 0.000000 0.083147
vn 0.070711 0.000000 0.070711
vn 0.070711 0.000000 0.070711
vn 0.083147 0.000000 0.055557
vn 0.083147 0.000000 0.055557
vn 0.092388 0.000000 0.038268
vn 0.092388 0.000000 0.038268
vn 0.098079 0.000000 0.019509
vn 0.000000 -0.100000 0.000000
vn 0.000000 -0.100000 0.000000
vn 0.000000 -0.100000 0.000000
vn 0.000000 -0.100000 0.000000
vn 0.000000 -0.100000 0.000000
vn 0.000000 -0.100000 0.000000
vn 0.000000 -0.100000 0.000000
vn 0.000000 -0.100000 0.000000
vn 0.000000 -0.100000 0.000000
vn 0.000000 -0.100000 0.000000
vn 0.000000 -0.100000 0.000000
vn 0.000000 -0.100000 0.000000
vn 0.000000 -0.100000 0.000000
vn 0.000000 -0.100000 0.000000
vn 0.000000 -0.100000 0.000000
vn 0.000000 -0.100000 0.000000
vn 0.000000 -0.100000 0.000000
vn 0.000000 -0.100000 0.000000
vn 0.000000 -0.100000 0.000000
vn 0.000000 -0.100000 0.000000
vn 0.000000 -0.100000 0.000000
vn 0.000000 -0.100000 0.000000
vn 0.000000 -0.100000 0.000000
vn 0.000000 -0.100000 0.000000
vn 0.000000 -0.100000 0.000000
vn 0.000000 -0.100000 0.000000
vn 0.000000 -0.100000 0.000000
vn 0.000000 -0.100000 0.000000
vn 0.000000 -0.100000 0.000000
vn 0.000000 -0.100000 0.000000
vn 0.000000 -0.100000 0.000000
vn 0.000000 -0.100000 0.000000
usemtl Steel_-_Satin
f 1/1/1 2/2/2 34/3/3
f 34/3/3 2/2/2 3/4/4
f 34/3/3 3/4/4 33/5/5
f 33/5/5 3/4/4 4/6/6
f 33/5/5 4/6/6 32/7/7
f 32/7/7 4/6/6 5/8/8
f 32/7/7 5/8/8 31/9/9
f 31/9/9 5/8/8 6/10/10
f 31/9/9 6/10/10 30/11/11
f 30/11/11 6/10/10 7/12/12
f 30/11/11 7/12/12 29/13/13
f 29/13/13 7/12/12 8/14/14
f 29/13/13 8/14/14 28/15/15
f 28/15/15 8/14/14 9/16/16
f 28/15/15 9/16/16 27/17/17
f 27/17/17 9/16/16 10/18/18
f 27/17/17 10/18/18 26/19/19
f 26/19/19 10/18/18 11/20/20
f 26/19/19 11/20/20 25/21/21
f 25/21/21 11/20/20 12/22/22
f 25/21/21 12/22/22 24/23/23
f 24/23/23 12/22/22 13/24/24
f 24/23/23 13/24/24 23/25/25
f 23/25/25 13/24/24 14/26/26
f 23/25/25 14/26/26 22/27/27
f 22/27/27 14/26/26 15/28/28
f 22/27/27 15/28/28 21/29/29
f 21/29/29 15/28/28 16/30/30
f 21/29/29 16/30/30 20/31/31
f 20/31/31 16/30/30 17/32/32
f 20/31/31 17/32/32 19/33/33
f 19/33/33 17/32/32 18/34/34
f 3/35/35 2/36/36 18/37/37
f 18/37/37 2/36/36 35/38/38
f 18/37/37 35/38/38 36/39/39
f 18/37/37 17/40/40 3/35/35
f 3/35/35 17/40/40 4/41/41
f 4/41/41 17/40/40 16/42/42
f 4/41/41 16/42/42 5/43/43
f 5/43/43 16/42/42 15/44/44
f 5/43/43 15/44/44 6/45/45
f 6/45/45 15/44/44 14/46/46
f 6/45/45 14/46/46 13/47/47
f 6/45/45 13/47/47 7/48/48
f 7/48/48 13/47/47 12/49/49
f 7/48/48 12/49/49 8/50/50
f 8/50/50 12/49/49 9/51/51
f 9/51/51 12/49/49 11/52/52
f 9/51/51 11/52/52 10/53/53
f 19/54/54 37/55/55 20/56/56
f 20/56/56 37/55/55 21/57/57
f 21/57/57 37/55/55 22/58/58
f 22/58/58 37/55/55 38/59/59
f 22/58/58 38/59/59 1/60/60
f 1/60/60 38/59/59 39/61/61
f 1/60/60 34/62/62 22/58/58
f 22/58/58 34/62/62 33/63/63
f 22/58/58 33/63/63 32/64/64
f 22/58/58 32/64/64 23/65/65
f 23/65/65 32/64/64 31/66/66
f 23/65/65 31/66/66 24/67/67
f 24/67/67 31/66/66 30/68/68
f 24/67/67 30/68/68 25/69/69
f 25/69/69 30/68/68 29/70/70
f 25/69/69 29/70/70 28/71/71
f 27/72/72 26/73/73 28/71/71
f 28/71/71 26/73/73 25/69/69
f 36/74/74 35/75/75 54/76/76
f 54/76/76 35/75/75 40/77/77
f 54/76/76 40/77/77 53/78/78
f 53/78/78 40/77/77 41/79/79
f 53/78/78 41/79/79 52/80/80
f 52/80/80 41/79/79 42/81/81
f 52/80/80 42/81/81 51/82/82
f 51/82/82 42/81/81 43/83/83
f 51/82/82 43/83/83 50/84/84
f 50/84/84 43/83/83 44/85/85
f 50/84/84 44/85/85 49/86/86
f 49/86/86 44/85/85 45/87/87
f 49/86/86 45/87/87 48/88/88
f 48/88/88 45/87/87 46/89/89
f 48/88/88 46/89/89 47/90/90
f 55/91/91 56/92/92 37/93/93
f 37/93/93 56/92/92 57/94/94
f 37/93/93 57/94/94 58/95/95
f 58/95/95 59/96/96 37/93/93
f 37/93/93 59/96/96 60/97/97
f 37/93/93 60/97/97 61/98/98
f 61/98/98 62/99/99 37/93/93
f 37/93/93 62/99/99 38/100/100
f 38/100/100 63/101/101 39/102/102
f 39/102/102 63/101/101 64/103/103
f 39/102/102 64/103/103 65/104/104
f 65/104/104 66/105/105 39/102/102
f 39/102/102 66/105/105 67/106/106
f 39/102/102 67/106/106 68/107/107
f 68/107/107 69/108/108 39/102/102
f 39/102/102 69/108/108 70/109/109
f 55/110/110 37/111/111 36/112/112
f 36/112/112 37/111/111 19/113/33
f 36/112/112 19/113/33 18/114/34
f 70/115/113 35/116/114 39/117/115
f 39/117/115 35/116/114 1/118/116
f 1/118/116 35/116/114 2/119/117
f 102/120/118 71/121/119 70/122/113
f 70/122/113 71/121/119 72/123/120
f 70/122/113 72/123/120 40/124/121
f 40/124/121 72/123/120 41/125/122
f 41/125/122 72/123/120 73/126/123
f 41/125/122 73/126/123 42/127/124
f 42/127/124 73/126/123 74/128/125
f 42/127/124 74/128/125 43/129/126
f 43/129/126 74/128/125 75/130/127
f 43/129/126 75/130/127 44/131/128
f 44/131/128 75/130/127 76/132/129
f 44/131/128 76/132/129 45/133/130
f 45/133/130 76/132/129 77/134/131
f 45/133/130 77/134/131 46/135/132
f 46/135/132 77/134/131 78/136/133
f 46/135/132 78/136/133 47/137/134
f 47/137/134 78/136/133 79/138/135
f 47/137/134 79/138/135 48/139/136
f 48/139/136 79/138/135 80/140/137
f 48/139/136 80/140/137 49/141/138
f 49/141/138 80/140/137 81/142/139
f 49/141/138 81/142/139 50/143/140
f 50/143/140 81/142/139 82/144/141
f 50/143/140 82/144/141 51/145/142
f 51/145/142 82/144/141 83/146/143
f 51/145/142 83/146/143 52/147/144
f 52/147/144 83/146/143 84/148/145
f 52/147/144 84/148/145 53/149/146
f 53/149/146 84/148/145 85/150/147
f 53/149/146 85/150/147 54/151/148
f 54/151/148 85/150/147 86/152/149
f 54/151/148 86/152/149 55/153/110
f 55/153/110 86/152/149 87/154/150
f 55/155/110 87/156/150 56/157/151
f 56/157/151 87/156/150 88/158/152
f 56/157/151 88/158/152 57/159/153
f 57/159/153 88/158/152 89/160/154
f 57/159/153 89/160/154 58/161/155
f 58/161/155 89/160/154 90/162/156
f 58/161/155 90/162/156 59/163/157
f 59/163/157 90/162/156 91/164/158
f 59/163/157 91/164/158 60/165/159
f 60/165/159 91/164/158 92/166/160
f 60/165/159 92/166/160 61/167/161
f 61/167/161 92/166/160 93/168/162
f 61/167/161 93/168/162 62/169/163
f 62/169/163 93/168/162 94/170/164
f 62/169/163 94/170/164 38/171/59
f 38/171/59 94/170/164 95/172/165
f 38/171/59 95/172/165 63/173/166
f 63/173/166 95/172/165 96/174/167
f 63/173/166 96/174/167 64/175/168
f 64/175/168 96/174/167 97/176/169
f 64/175/168 97/176/169 65/177/170
f 65/177/170 97/176/169 98/178/171
f 65/177/170 98/178/171 66/179/172
f 66/179/172 98/178/171 99/180/173
f 66/179/172 99/180/173 67/181/174
f 67/181/174 99/180/173 100/182/175
f 67/181/174 100/182/175 68/183/176
f 68/183/176 100/182/175 101/184/177
f 68/183/176 101/184/177 69/185/178
f 69/185/178 101/184/177 102/120/118
f 69/185/178 102/120/118 70/122/113
f 35/186/114 70/122/113 40/124/121
f 55/153/110 36/187/112 54/151/148
f 102/188/179 88/189/180 71/190/181
f 71/190/181 88/189/180 87/191/182
f 71/190/181 87/191/182 72/192/183
f 72/192/183 87/191/182 86/193/184
f 72/192/183 86/193/184 73/194/185
f 73/194/185 86/193/184 85/195/186
f 73/194/185 85/195/186 74/196/187
f 74/196/187 85/195/186 84/197/188
f 74/196/187 84/197/188 75/198/189
f 75/198/189 84/197/188 83/199/190
f 75/198/189 83/199/190 76/200/191
f 76/200/191 83/199/190 82/201/192
f 76/200/191 82/201/192 77/202/193
f 77/202/193 82/201/192 81/203/194
f 77/202/193 81/203/194 78/204/195
f 78/204/195 81/203/194 80/205/196
f 78/204/195 80/205/196 79/206/197
f 88/189/180 102/188/179 89/207/198
f 89/207/198 102/188/179 101/208/199
f 89/207/198 101/208/199 90/209/200
f 90/209/200 101/208/199 100/210/201
f 90/209/200 100/210/201 91/211/202
f 91/211/202 100/210/201 99/212/203
f 91/211/202 99/212/203 92/213/204
f 92/213/204 99/212/203 98/214/205
f 92/213/204 98/214/205 93/215/206
f 93/215/206 98/214/205 97/216/207
f 93/215/206 97/216/207 94/217/208
f 94/217/208 97/216/207 96/218/209
f 94/217/208 96/218/209 95/219/210

# 102 vertices
# 219 texture params
# 210 normals
# 200 facets

# 1 groups
