# WaveFront *.obj file (generated by Autodesk ATF)

mtllib d3de5774-5b8c-4d49-9c6a-812da4af24a0.mtl

g head

v 0.000000 0.000000 0.500000
v -0.082297 0.000000 0.493181
v -0.162350 0.000000 0.472909
v -0.237974 0.000000 0.439737
v -0.307106 0.000000 0.394570
v -0.367862 0.000000 0.338641
v -0.418583 0.000000 0.273474
v -0.457887 0.000000 0.200848
v -0.484700 0.000000 0.122743
v -0.498292 0.000000 0.041290
v -0.498292 0.000000 -0.041290
v -0.484700 0.000000 -0.122743
v -0.457887 0.000000 -0.200848
v -0.418583 0.000000 -0.273474
v -0.367862 0.000000 -0.338641
v -0.307106 0.000000 -0.394570
v -0.237974 0.000000 -0.439737
v -0.162350 0.000000 -0.472909
v -0.082297 0.000000 -0.493181
v 0.000000 0.000000 -0.500000
v 0.082297 0.000000 -0.493181
v 0.162350 0.000000 -0.472909
v 0.237974 0.000000 -0.439737
v 0.307106 0.000000 -0.394570
v 0.367862 0.000000 -0.338641
v 0.418583 0.000000 -0.273474
v 0.457887 0.000000 -0.200848
v 0.484700 0.000000 -0.122743
v 0.498292 0.000000 -0.041290
v 0.498292 0.000000 0.041290
v 0.484700 0.000000 0.122743
v 0.457887 0.000000 0.200848
v 0.418583 0.000000 0.273474
v 0.367862 0.000000 0.338641
v 0.307106 0.000000 0.394570
v 0.237974 0.000000 0.439737
v 0.162350 0.000000 0.472909
v 0.082297 0.000000 0.493181
v 0.000000 1.000000 -0.000000
vt 0.000682 0.008230 0.000000
vt 0.000000 0.000000 0.000000
vt 0.089457 -0.030711 0.000000
vt 0.000682 -0.008230 0.000000
vt 0.002709 -0.016235 0.000000
vt 0.006026 -0.023797 0.000000
vt 0.010543 -0.030711 0.000000
vt 0.083864 -0.036786 0.000000
vt 0.016136 -0.036786 0.000000
vt 0.077347 -0.041858 0.000000
vt 0.022653 -0.041858 0.000000
vt 0.070085 -0.045789 0.000000
vt 0.029915 -0.045789 0.000000
vt 0.062274 -0.048470 0.000000
vt 0.037726 -0.048470 0.000000
vt 0.054129 -0.049829 0.000000
vt 0.045871 -0.049829 0.000000
vt 0.093974 -0.023797 0.000000
vt 0.054129 0.049829 0.000000
vt 0.045871 0.049829 0.000000
vt 0.037726 0.048470 0.000000
vt 0.097291 -0.016235 0.000000
vt 0.093974 0.023797 0.000000
vt 0.089457 0.030711 0.000000
vt 0.083864 0.036786 0.000000
vt 0.097291 0.016235 0.000000
vt 0.099318 -0.008230 0.000000
vt 0.099318 0.008230 0.000000
vt 0.100000 0.000000 0.000000
vt 0.077347 0.041858 0.000000
vt 0.070085 0.045789 0.000000
vt 0.062274 0.048470 0.000000
vt 0.029915 0.045789 0.000000
vt 0.022653 0.041858 0.000000
vt 0.016136 0.036786 0.000000
vt 0.010543 0.030711 0.000000
vt 0.006026 0.023797 0.000000
vt 0.002709 0.016235 0.000000
vt -0.000000 0.004134 0.000000
vt -0.111803 0.004134 0.000000
vt -0.000000 0.000000 0.000000
vt -0.000000 0.012401 0.000000
vt -0.111803 0.012401 0.000000
vt -0.000000 0.008267 0.000000
vt -0.000000 0.020668 0.000000
vt -0.111803 0.020668 0.000000
vt -0.000000 0.016535 0.000000
vt -0.000000 0.028936 0.000000
vt -0.111803 0.028936 0.000000
vt -0.000000 0.024802 0.000000
vt -0.000000 0.037203 0.000000
vt -0.111803 0.037203 0.000000
vt -0.000000 0.033069 0.000000
vt -0.000000 0.045470 0.000000
vt -0.111803 0.045470 0.000000
vt -0.000000 0.041337 0.000000
vt -0.000000 0.053738 0.000000
vt -0.111803 0.053738 0.000000
vt -0.000000 0.049604 0.000000
vt -0.000000 0.062005 0.000000
vt -0.111803 0.062005 0.000000
vt -0.000000 0.057871 0.000000
vt -0.000000 0.070272 0.000000
vt -0.111803 0.070272 0.000000
vt -0.000000 0.066139 0.000000
vt -0.000000 0.078540 0.000000
vt -0.111803 0.078540 0.000000
vt -0.000000 0.074406 0.000000
vt -0.000000 -0.070272 0.000000
vt -0.111803 -0.070272 0.000000
vt -0.000000 -0.074406 0.000000
vt -0.000000 -0.062005 0.000000
vt -0.111803 -0.062005 0.000000
vt -0.000000 -0.066139 0.000000
vt -0.000000 -0.053738 0.000000
vt -0.111803 -0.053738 0.000000
vt -0.000000 -0.057871 0.000000
vt -0.000000 -0.045470 0.000000
vt -0.111803 -0.045470 0.000000
vt -0.000000 -0.049604 0.000000
vt -0.000000 -0.037203 0.000000
vt -0.111803 -0.037203 0.000000
vt -0.000000 -0.041337 0.000000
vt -0.000000 -0.028936 0.000000
vt -0.111803 -0.028936 0.000000
vt -0.000000 -0.033069 0.000000
vt -0.000000 -0.024802 0.000000
vt -0.111803 -0.024802 0.000000
vt -0.000000 -0.016535 0.000000
vt -0.111803 -0.016535 0.000000
vt -0.000000 -0.020668 0.000000
vt -0.000000 -0.008267 0.000000
vt -0.111803 -0.008267 0.000000
vt -0.000000 -0.012401 0.000000
vt -0.111803 0.000000 0.000000
vt 0.000000 -0.004134 0.000000
vt -0.111803 -0.074406 0.000000
vt -0.000000 -0.078540 0.000000
vt -0.111803 0.074406 0.000000
vt -0.111803 0.066139 0.000000
vt -0.111803 0.057871 0.000000
vt -0.111803 0.049604 0.000000
vt -0.111803 0.041337 0.000000
vt -0.111803 0.033069 0.000000
vt -0.111803 0.024802 0.000000
vt -0.111803 0.016535 0.000000
vt -0.111803 0.008267 0.000000
vt -0.111803 -0.004134 0.000000
vt -0.111803 -0.012401 0.000000
vt -0.111803 -0.020668 0.000000
vt -0.111803 -0.033069 0.000000
vt -0.111803 -0.041337 0.000000
vt -0.111803 -0.049604 0.000000
vt -0.111803 -0.057871 0.000000
vt -0.111803 -0.066139 0.000000
vn 0.000000 -0.100000 0.000000
vn 0.000000 -0.100000 0.000000
vn 0.000000 -0.100000 0.000000
vn 0.000000 -0.100000 0.000000
vn 0.000000 -0.100000 0.000000
vn 0.000000 -0.100000 0.000000
vn 0.000000 -0.100000 0.000000
vn 0.000000 -0.100000 0.000000
vn 0.000000 -0.100000 0.000000
vn 0.000000 -0.100000 0.000000
vn 0.000000 -0.100000 0.000000
vn 0.000000 -0.100000 0.000000
vn 0.000000 -0.100000 0.000000
vn 0.000000 -0.100000 0.000000
vn 0.000000 -0.100000 0.000000
vn 0.000000 -0.100000 0.000000
vn 0.000000 -0.100000 0.000000
vn 0.000000 -0.100000 0.000000
vn 0.000000 -0.100000 0.000000
vn 0.000000 -0.100000 0.000000
vn 0.000000 -0.100000 0.000000
vn 0.000000 -0.100000 0.000000
vn 0.000000 -0.100000 0.000000
vn 0.000000 -0.100000 0.000000
vn 0.000000 -0.100000 0.000000
vn 0.000000 -0.100000 0.000000
vn 0.000000 -0.100000 0.000000
vn 0.000000 -0.100000 0.000000
vn 0.000000 -0.100000 0.000000
vn 0.000000 -0.100000 0.000000
vn 0.000000 -0.100000 0.000000
vn 0.000000 -0.100000 0.000000
vn 0.000000 -0.100000 0.000000
vn 0.000000 -0.100000 0.000000
vn 0.000000 -0.100000 0.000000
vn 0.000000 -0.100000 0.000000
vn 0.000000 -0.100000 0.000000
vn 0.000000 -0.100000 0.000000
vn 0.014722 0.044721 0.088223
vn 0.014722 0.044721 0.088223
vn 0.000000 0.044721 0.089443
vn 0.042570 0.044721 0.078663
vn 0.042570 0.044721 0.078663
vn 0.029042 0.044721 0.084596
vn 0.065805 0.044721 0.060578
vn 0.065805 0.044721 0.060578
vn 0.054937 0.044721 0.070583
vn 0.081909 0.044721 0.035929
vn 0.081909 0.044721 0.035929
vn 0.074878 0.044721 0.048921
vn 0.089137 0.044721 0.007386
vn 0.089137 0.044721 0.007386
vn 0.086706 0.044721 0.021957
vn 0.086706 0.044721 -0.021957
vn 0.086706 0.044721 -0.021957
vn 0.089137 0.044721 -0.007386
vn 0.074878 0.044721 -0.048921
vn 0.074878 0.044721 -0.048921
vn 0.081909 0.044721 -0.035929
vn 0.054937 0.044721 -0.070583
vn 0.054937 0.044721 -0.070583
vn 0.065805 0.044721 -0.060578
vn 0.029042 0.044721 -0.084596
vn 0.029042 0.044721 -0.084596
vn 0.042570 0.044721 -0.078663
vn 0.000000 0.044721 -0.089443
vn 0.000000 0.044721 -0.089443
vn 0.014722 0.044721 -0.088223
vn -0.029042 0.044721 -0.084596
vn -0.029042 0.044721 -0.084596
vn -0.014722 0.044721 -0.088223
vn -0.054937 0.044721 -0.070583
vn -0.054937 0.044721 -0.070583
vn -0.042570 0.044721 -0.078663
vn -0.074878 0.044721 -0.048921
vn -0.074878 0.044721 -0.048921
vn -0.065805 0.044721 -0.060578
vn -0.086706 0.044721 -0.021957
vn -0.086706 0.044721 -0.021957
vn -0.081909 0.044721 -0.035929
vn -0.089137 0.044721 0.007386
vn -0.089137 0.044721 0.007386
vn -0.089137 0.044721 -0.007386
vn -0.081909 0.044721 0.035929
vn -0.081909 0.044721 0.035929
vn -0.086706 0.044721 0.021957
vn -0.074878 0.044721 0.048921
vn -0.074878 0.044721 0.048921
vn -0.054937 0.044721 0.070583
vn -0.054937 0.044721 0.070583
vn -0.065805 0.044721 0.060578
vn -0.029042 0.044721 0.084596
vn -0.029042 0.044721 0.084596
vn -0.042570 0.044721 0.078663
vn 0.000000 0.044721 0.089443
vn -0.014722 0.044721 0.088223
vn -0.014722 0.044721 -0.088223
vn 0.014722 0.044721 -0.088223
vn 0.042570 0.044721 -0.078663
vn 0.065805 0.044721 -0.060578
vn 0.081909 0.044721 -0.035929
vn 0.089137 0.044721 -0.007386
vn 0.086706 0.044721 0.021957
vn 0.074878 0.044721 0.048921
vn 0.054937 0.044721 0.070583
vn 0.029042 0.044721 0.084596
vn -0.014722 0.044721 0.088223
vn -0.042570 0.044721 0.078663
vn -0.065805 0.044721 0.060578
vn -0.086706 0.044721 0.021957
vn -0.089137 0.044721 -0.007386
vn -0.081909 0.044721 -0.035929
vn -0.065805 0.044721 -0.060578
vn -0.042570 0.044721 -0.078663
usemtl Steel_-_Satin
f 38/1/1 1/2/2 16/3/3
f 16/3/3 1/2/2 2/4/4
f 16/3/3 2/4/4 3/5/5
f 3/5/5 4/6/6 16/3/3
f 16/3/3 4/6/6 5/7/7
f 16/3/3 5/7/7 15/8/8
f 15/8/8 5/7/7 6/9/9
f 15/8/8 6/9/9 14/10/10
f 14/10/10 6/9/9 7/11/11
f 14/10/10 7/11/11 13/12/12
f 13/12/12 7/11/11 8/13/13
f 13/12/12 8/13/13 12/14/14
f 12/14/14 8/13/13 9/15/15
f 12/14/14 9/15/15 11/16/16
f 11/16/16 9/15/15 10/17/17
f 17/18/18 29/19/19 16/3/3
f 16/3/3 29/19/19 30/20/20
f 16/3/3 30/20/20 31/21/21
f 18/22/22 23/23/23 17/18/18
f 17/18/18 23/23/23 24/24/24
f 17/18/18 24/24/24 25/25/25
f 23/23/23 18/22/22 22/26/26
f 22/26/26 18/22/22 19/27/27
f 22/26/26 19/27/27 21/28/28
f 21/28/28 19/27/27 20/29/29
f 25/25/25 26/30/30 17/18/18
f 17/18/18 26/30/30 27/31/31
f 17/18/18 27/31/31 28/32/32
f 28/32/32 29/19/19 17/18/18
f 31/21/21 32/33/33 16/3/3
f 16/3/3 32/33/33 33/34/34
f 16/3/3 33/34/34 34/35/35
f 34/35/35 35/36/36 16/3/3
f 16/3/3 35/36/36 36/37/37
f 16/3/3 36/37/37 37/38/38
f 37/38/38 38/1/1 16/3/3
f 38/39/39 39/40/40 1/41/41
f 36/42/42 39/43/43 37/44/44
f 34/45/45 39/46/46 35/47/47
f 32/48/48 39/49/49 33/50/50
f 30/51/51 39/52/52 31/53/53
f 28/54/54 39/55/55 29/56/56
f 26/57/57 39/58/58 27/59/59
f 24/60/60 39/61/61 25/62/62
f 22/63/63 39/64/64 23/65/65
f 20/66/66 39/67/67 21/68/68
f 18/69/69 39/70/70 19/71/71
f 16/72/72 39/73/73 17/74/74
f 14/75/75 39/76/76 15/77/77
f 12/78/78 39/79/79 13/80/80
f 10/81/81 39/82/82 11/83/83
f 8/84/84 39/85/85 9/86/86
f 7/87/87 39/88/88 8/84/84
f 5/89/89 39/90/90 6/91/91
f 3/92/92 39/93/93 4/94/94
f 1/41/41 39/95/95 2/96/96
f 19/71/71 39/97/97 20/98/66
f 21/68/68 39/99/98 22/63/63
f 23/65/65 39/100/99 24/60/60
f 25/62/62 39/101/100 26/57/57
f 27/59/59 39/102/101 28/54/54
f 29/56/56 39/103/102 30/51/51
f 31/53/53 39/104/103 32/48/48
f 33/50/50 39/105/104 34/45/45
f 35/47/47 39/106/105 36/42/42
f 37/44/44 39/107/106 38/39/39
f 2/96/96 39/108/107 3/92/92
f 4/94/94 39/109/108 5/89/89
f 6/91/91 39/110/109 7/87/87
f 9/86/86 39/111/110 10/81/81
f 11/83/83 39/112/111 12/78/78
f 13/80/80 39/113/112 14/75/75
f 15/77/77 39/114/113 16/72/72
f 17/74/74 39/115/114 18/69/69

# 39 vertices
# 115 texture params
# 114 normals
# 74 facets

# 1 groups
